<svg xmlns="http://www.w3.org/2000/svg" viewBox="0 0 64 64">
  <rect width="64" height="64" rx="16" fill="#283126"/>
  <circle cx="32" cy="32" r="24" fill="none" stroke="#d8b866" stroke-width="2"/>
  <path fill="#f8efd9" d="M20 43V21h9.2c6.2 0 10 3.1 10 8.2 0 5.4-4 8.7-10.5 8.7h-3.1V43H20Zm5.6-9.7h2.8c3.4 0 5.2-1.3 5.2-3.9 0-2.5-1.7-3.7-5-3.7h-3v7.6Z"/>
  <path fill="#d8b866" d="M44.7 42.7c-5.3 0-9.1-3.5-9.1-8.6 0-5.2 3.9-8.8 9.4-8.8 1.4 0 2.8.2 4 .7l-1.1 4.5a7 7 0 0 0-2.7-.6c-2.5 0-4.1 1.7-4.1 4.1 0 2.5 1.7 4.1 4.2 4.1 1 0 2-.2 2.9-.6l1 4.4c-1.3.5-2.9.8-4.5.8Z"/>
</svg>
